<svg width="64" height="64" viewBox="0 0 64 64" fill="none" xmlns="http://www.w3.org/2000/svg">
  <rect width="64" height="64" rx="16" fill="#4F46E5"/>
  <path d="M18 18H36C42.075 18 46 21.267 46 26.19C46 29.113 44.513 31.42 41.983 32.553C45.291 33.6 47.333 36.177 47.333 39.777C47.333 45.1 43.058 48 36.603 48H18V18Z" fill="white"/>
  <path d="M26 25.2V30.25H35.312C37.472 30.25 38.75 29.333 38.75 27.717C38.75 26.1 37.472 25.2 35.312 25.2H26Z" fill="#4F46E5"/>
  <path d="M26 35.717V40.8H36.081C38.241 40.8 39.806 39.95 39.806 38.25C39.806 36.567 38.241 35.717 36.081 35.717H26Z" fill="#4F46E5"/>
</svg>
